<svg width="118" height="47" viewBox="0 0 118 47" fill="none" xmlns="http://www.w3.org/2000/svg">
<path fill-rule="evenodd" clip-rule="evenodd" d="M110.761 23.4248V22.4513C107.898 22.4513 105.114 19.8555 104.08 18.5576C105.034 17.9735 106.705 14.2582 107.42 12.4736C107.802 11.1108 109.966 10.7701 111 10.7701V9.55328H102.886V10.5267L105.034 11.2568C106.18 12.4249 104.398 15.9618 103.364 17.5842L97.875 11.0134C98.3523 10.7701 102.409 8.33648 102.17 4.92944C101.98 2.20381 99.3864 1.19792 98.1136 1.03568C96.8409 0.873443 93.9614 1.1817 92.625 3.71264C91.2886 6.24358 93.5 9.79664 94.7727 11.2568C90.9545 13.2037 90 16.2862 90 17.5842C90.1909 22.2567 93.7386 23.7493 95.4886 23.9115C98.1614 24.4956 101.216 22.0457 102.409 20.7478L104.557 23.4248H110.761ZM95.4886 12.2302L101.455 20.0177C100.58 20.9912 98.1614 22.5974 95.4886 21.2345C92.8159 19.8717 92.9432 16.6107 93.3409 15.1506C93.5 14.4205 94.1523 12.8143 95.4886 12.2302ZM97.3977 10.04C96.2841 8.90432 94.2955 6.14624 95.25 4.19936C96.2045 2.25248 97.875 2.25248 98.5909 2.49584C99.3864 2.7392 100.786 3.956 100.023 6.87632C99.7841 7.52528 98.925 9.06656 97.3977 10.04Z" fill="white" stroke="white"/>
<path d="M11.8594 6.63672V15.6367C11.8594 16.418 11.8242 17.082 11.7539 17.6289C11.6914 18.1758 11.543 18.7305 11.3086 19.293C10.918 20.2383 10.2734 20.9766 9.375 21.5078C8.47656 22.0312 7.38281 22.293 6.09375 22.293C4.92969 22.293 3.95703 22.1094 3.17578 21.7422C2.40234 21.375 1.77734 20.7812 1.30078 19.9609C1.05078 19.5234 0.847656 19.0195 0.691406 18.4492C0.535156 17.8789 0.457031 17.3359 0.457031 16.8203C0.457031 16.2734 0.609375 15.8555 0.914062 15.5664C1.21875 15.2773 1.60938 15.1328 2.08594 15.1328C2.54688 15.1328 2.89453 15.2656 3.12891 15.5312C3.36328 15.7969 3.54297 16.2109 3.66797 16.7734C3.80078 17.375 3.93359 17.8555 4.06641 18.2148C4.19922 18.5742 4.42188 18.8828 4.73438 19.1406C5.04688 19.3984 5.49219 19.5273 6.07031 19.5273C7.60938 19.5273 8.37891 18.3984 8.37891 16.1406V6.63672C8.37891 5.93359 8.53125 5.40625 8.83594 5.05469C9.14844 4.70312 9.57031 4.52734 10.1016 4.52734C10.6406 4.52734 11.0664 4.70312 11.3789 5.05469C11.6992 5.40625 11.8594 5.93359 11.8594 6.63672ZM14.6962 14.8984V6.63672C14.6962 5.93359 14.8525 5.40625 15.165 5.05469C15.4853 4.70312 15.9033 4.52734 16.4189 4.52734C16.958 4.52734 17.3837 4.70312 17.6962 5.05469C18.0166 5.40625 18.1767 5.93359 18.1767 6.63672V15.0859C18.1767 16.0469 18.2822 16.8516 18.4931 17.5C18.7119 18.1406 19.0947 18.6406 19.6416 19C20.1884 19.3516 20.9541 19.5273 21.9384 19.5273C23.2978 19.5273 24.2587 19.168 24.8212 18.4492C25.3837 17.7227 25.665 16.625 25.665 15.1562V6.63672C25.665 5.92578 25.8212 5.39844 26.1337 5.05469C26.4462 4.70312 26.8642 4.52734 27.3877 4.52734C27.9111 4.52734 28.333 4.70312 28.6533 5.05469C28.9814 5.39844 29.1455 5.92578 29.1455 6.63672V14.8984C29.1455 16.2422 29.0127 17.3633 28.747 18.2617C28.4892 19.1602 27.997 19.9492 27.2705 20.6289C26.6455 21.207 25.9189 21.6289 25.0908 21.8945C24.2627 22.1602 23.2939 22.293 22.1845 22.293C20.8642 22.293 19.7275 22.1523 18.7744 21.8711C17.8212 21.582 17.0439 21.1406 16.4423 20.5469C15.8408 19.9453 15.3994 19.1797 15.1181 18.25C14.8369 17.3125 14.6962 16.1953 14.6962 14.8984ZM35.3573 6.63672V19.1406H42.412C42.9745 19.1406 43.4042 19.2773 43.7011 19.5508C44.0058 19.8242 44.1581 20.168 44.1581 20.582C44.1581 21.0039 44.0097 21.3477 43.7128 21.6133C43.4159 21.8711 42.9823 22 42.412 22H34.0097C33.2519 22 32.705 21.832 32.3691 21.4961C32.0409 21.1602 31.8769 20.6172 31.8769 19.8672V6.63672C31.8769 5.93359 32.0331 5.40625 32.3456 5.05469C32.6659 4.70312 33.0839 4.52734 33.5995 4.52734C34.123 4.52734 34.5448 4.70312 34.8652 5.05469C35.1933 5.39844 35.3573 5.92578 35.3573 6.63672ZM45.6356 20.1719V6.63672C45.6356 5.93359 45.7958 5.40625 46.1161 5.05469C46.4364 4.70312 46.8505 4.52734 47.3583 4.52734C47.8817 4.52734 48.3036 4.70312 48.6239 5.05469C48.952 5.39844 49.1161 5.92578 49.1161 6.63672V20.1719C49.1161 20.8828 48.952 21.4141 48.6239 21.7656C48.3036 22.1172 47.8817 22.293 47.3583 22.293C46.8583 22.293 46.4442 22.1172 46.1161 21.7656C45.7958 21.4062 45.6356 20.875 45.6356 20.1719ZM56.5936 6.61328L63.285 16.7383V6.51953C63.285 5.85547 63.4256 5.35938 63.7069 5.03125C63.9959 4.69531 64.3827 4.52734 64.867 4.52734C65.367 4.52734 65.7616 4.69531 66.0506 5.03125C66.3397 5.35938 66.4842 5.85547 66.4842 6.51953V20.0312C66.4842 21.5391 65.8592 22.293 64.6092 22.293C64.2967 22.293 64.0155 22.2461 63.7655 22.1523C63.5155 22.0664 63.2811 21.9258 63.0623 21.7305C62.8436 21.5352 62.6405 21.3086 62.453 21.0508C62.2655 20.7852 62.078 20.5156 61.8905 20.2422L55.3631 10.2344V20.3008C55.3631 20.957 55.2108 21.4531 54.9061 21.7891C54.6014 22.125 54.2108 22.293 53.7342 22.293C53.242 22.293 52.8475 22.125 52.5506 21.7891C52.2537 21.4453 52.1053 20.9492 52.1053 20.3008V7.04688C52.1053 6.48438 52.1678 6.04297 52.2928 5.72266C52.4412 5.37109 52.6873 5.08594 53.0311 4.86719C53.3748 4.64063 53.7459 4.52734 54.1444 4.52734C54.4569 4.52734 54.7225 4.57812 54.9412 4.67969C55.1678 4.78125 55.3631 4.91797 55.5272 5.08984C55.6991 5.26172 55.8709 5.48438 56.0428 5.75781C56.2225 6.03125 56.4061 6.31641 56.5936 6.61328ZM80.6531 7.50391H72.8133V11.7227H80.032C80.5633 11.7227 80.9578 11.8438 81.2156 12.0859C81.4812 12.3203 81.6141 12.6328 81.6141 13.0234C81.6141 13.4141 81.4852 13.7344 81.2273 13.9844C80.9695 14.2266 80.5711 14.3477 80.032 14.3477H72.8133V19.2344H80.9227C81.4695 19.2344 81.8797 19.3633 82.1531 19.6211C82.4344 19.8711 82.575 20.207 82.575 20.6289C82.575 21.0352 82.4344 21.3672 82.1531 21.625C81.8797 21.875 81.4695 22 80.9227 22H71.4656C70.7078 22 70.1609 21.832 69.825 21.4961C69.4969 21.1602 69.3328 20.6172 69.3328 19.8672V6.95312C69.3328 6.45312 69.407 6.04688 69.5555 5.73438C69.7039 5.41406 69.9344 5.18359 70.2469 5.04297C70.5672 4.89453 70.9734 4.82031 71.4656 4.82031H80.6531C81.2078 4.82031 81.618 4.94531 81.8836 5.19531C82.157 5.4375 82.2937 5.75781 82.2937 6.15625C82.2937 6.5625 82.157 6.89063 81.8836 7.14062C81.618 7.38281 81.2078 7.50391 80.6531 7.50391Z" fill="white"/>
<path d="M7.67578 43.4102L4.92188 32.4648V44.3242C4.92188 44.9805 4.77344 45.4727 4.47656 45.8008C4.1875 46.1289 3.80078 46.293 3.31641 46.293C2.84766 46.293 2.46484 46.1328 2.16797 45.8125C1.87109 45.4844 1.72266 44.9883 1.72266 44.3242V30.7305C1.72266 29.9805 1.91797 29.4766 2.30859 29.2188C2.69922 28.9531 3.22656 28.8203 3.89062 28.8203H4.96875C5.61719 28.8203 6.08594 28.8789 6.375 28.9961C6.67188 29.1133 6.89062 29.3242 7.03125 29.6289C7.17188 29.9336 7.33203 30.4297 7.51172 31.1172L10.0078 40.5273L12.5039 31.1172C12.6836 30.4297 12.8438 29.9336 12.9844 29.6289C13.125 29.3242 13.3398 29.1133 13.6289 28.9961C13.9258 28.8789 14.3984 28.8203 15.0469 28.8203H16.125C16.7891 28.8203 17.3164 28.9531 17.707 29.2188C18.0977 29.4766 18.293 29.9805 18.293 30.7305V44.3242C18.293 44.9805 18.1445 45.4727 17.8477 45.8008C17.5586 46.1289 17.168 46.293 16.6758 46.293C16.2148 46.293 15.8359 46.1289 15.5391 45.8008C15.2422 45.4727 15.0938 44.9805 15.0938 44.3242V32.4648L12.3398 43.4102C12.1602 44.1211 12.0117 44.6445 11.8945 44.9805C11.7852 45.3086 11.5781 45.6094 11.2734 45.8828C10.9688 46.1562 10.5469 46.293 10.0078 46.293C9.60156 46.293 9.25781 46.2031 8.97656 46.0234C8.69531 45.8516 8.47656 45.6289 8.32031 45.3555C8.16406 45.082 8.03906 44.7812 7.94531 44.4531C7.85938 44.1172 7.76953 43.7695 7.67578 43.4102ZM31.8994 44.0547L31.0791 41.8984H24.0947L23.2744 44.1016C22.9541 44.9609 22.6806 45.543 22.4541 45.8477C22.2275 46.1445 21.8564 46.293 21.3408 46.293C20.9033 46.293 20.5166 46.1328 20.1806 45.8125C19.8447 45.4922 19.6767 45.1289 19.6767 44.7227C19.6767 44.4883 19.7158 44.2461 19.7939 43.9961C19.872 43.7461 20.0009 43.3984 20.1806 42.9531L24.5752 31.7969C24.7002 31.4766 24.8486 31.0938 25.0205 30.6484C25.2002 30.1953 25.3877 29.8203 25.583 29.5234C25.7861 29.2266 26.0478 28.9883 26.3681 28.8086C26.6963 28.6211 27.0986 28.5273 27.5752 28.5273C28.0595 28.5273 28.4619 28.6211 28.7822 28.8086C29.1103 28.9883 29.372 29.2227 29.5673 29.5117C29.7705 29.8008 29.9384 30.1133 30.0713 30.4492C30.2119 30.7773 30.3877 31.2188 30.5986 31.7734L35.0869 42.8594C35.4384 43.7031 35.6142 44.3164 35.6142 44.6992C35.6142 45.0977 35.4463 45.4648 35.1103 45.8008C34.7822 46.1289 34.3838 46.293 33.915 46.293C33.6416 46.293 33.4072 46.2422 33.2119 46.1406C33.0166 46.0469 32.8525 45.918 32.7197 45.7539C32.5869 45.582 32.4423 45.3242 32.2861 44.9805C32.1377 44.6289 32.0088 44.3203 31.8994 44.0547ZM25.0088 39.2852H30.1416L27.5517 32.1953L25.0088 39.2852ZM41.8964 38.6523H40.6777V44.1719C40.6777 44.8984 40.5175 45.4336 40.1972 45.7773C39.8769 46.1211 39.4589 46.293 38.9433 46.293C38.3886 46.293 37.9589 46.1133 37.6542 45.7539C37.3495 45.3945 37.1972 44.8672 37.1972 44.1719V30.9531C37.1972 30.2031 37.3652 29.6602 37.7011 29.3242C38.037 28.9883 38.58 28.8203 39.33 28.8203H44.9902C45.7714 28.8203 46.4394 28.8555 46.9941 28.9258C47.5488 28.9883 48.0488 29.1211 48.4941 29.3242C49.0331 29.5508 49.5097 29.875 49.9238 30.2969C50.3378 30.7188 50.6503 31.2109 50.8613 31.7734C51.08 32.3281 51.1894 32.918 51.1894 33.543C51.1894 34.8242 50.8261 35.8477 50.0995 36.6133C49.3808 37.3789 48.287 37.9219 46.8183 38.2422C47.4355 38.5703 48.0253 39.0547 48.5878 39.6953C49.1503 40.3359 49.6503 41.0195 50.0878 41.7461C50.5331 42.4648 50.8769 43.1172 51.1191 43.7031C51.3691 44.2812 51.4941 44.6797 51.4941 44.8984C51.4941 45.125 51.4198 45.3516 51.2714 45.5781C51.1308 45.7969 50.9355 45.9688 50.6855 46.0938C50.4355 46.2266 50.1464 46.293 49.8183 46.293C49.4277 46.293 49.0995 46.1992 48.8339 46.0117C48.5683 45.832 48.3378 45.6016 48.1425 45.3203C47.955 45.0391 47.6972 44.625 47.3691 44.0781L45.9745 41.7578C45.4745 40.9062 45.0253 40.2578 44.6269 39.8125C44.2363 39.3672 43.8378 39.0625 43.4316 38.8984C43.0253 38.7344 42.5136 38.6523 41.8964 38.6523ZM43.8886 31.4336H40.6777V36.1562H43.7948C44.6308 36.1562 45.3339 36.0859 45.9042 35.9453C46.4745 35.7969 46.9081 35.5508 47.205 35.207C47.5097 34.8555 47.662 34.375 47.662 33.7656C47.662 33.2891 47.5409 32.8711 47.2988 32.5117C47.0566 32.1445 46.7206 31.8711 46.2909 31.6914C45.8847 31.5195 45.0839 31.4336 43.8886 31.4336ZM68.8973 39.0156V42.3086C68.8973 42.7461 68.8544 43.0977 68.7684 43.3633C68.6825 43.6211 68.5223 43.8555 68.288 44.0664C68.0614 44.2773 67.7684 44.4805 67.4091 44.6758C66.37 45.2383 65.37 45.6484 64.4091 45.9062C63.4481 46.1641 62.4012 46.293 61.2684 46.293C59.9481 46.293 58.745 46.0898 57.6591 45.6836C56.5731 45.2773 55.6473 44.6875 54.8817 43.9141C54.1161 43.1406 53.5262 42.2031 53.1122 41.1016C52.7059 40 52.5028 38.7695 52.5028 37.4102C52.5028 36.0742 52.702 34.8516 53.1005 33.7422C53.4989 32.6328 54.0848 31.6914 54.8583 30.918C55.6317 30.1445 56.5731 29.5547 57.6825 29.1484C58.7919 28.7344 60.0497 28.5273 61.4559 28.5273C62.6122 28.5273 63.6356 28.6836 64.5262 28.9961C65.4169 29.3008 66.1395 29.6875 66.6942 30.1562C67.2489 30.625 67.6669 31.1211 67.9481 31.6445C68.2294 32.168 68.37 32.6328 68.37 33.0391C68.37 33.4766 68.2059 33.8516 67.8778 34.1641C67.5575 34.4688 67.1708 34.6211 66.7177 34.6211C66.4677 34.6211 66.2255 34.5625 65.9911 34.4453C65.7645 34.3281 65.5731 34.1641 65.4169 33.9531C64.9872 33.2812 64.6239 32.7734 64.327 32.4297C64.0302 32.0859 63.6278 31.7969 63.12 31.5625C62.62 31.3281 61.9794 31.2109 61.1981 31.2109C60.3934 31.2109 59.6747 31.3516 59.0419 31.6328C58.4091 31.9062 57.8661 32.3086 57.413 32.8398C56.9677 33.3633 56.6239 34.0078 56.3817 34.7734C56.1473 35.5391 56.0302 36.3867 56.0302 37.3164C56.0302 39.332 56.4911 40.8828 57.413 41.9688C58.3427 43.0547 59.6356 43.5977 61.2919 43.5977C62.0966 43.5977 62.8505 43.4922 63.5536 43.2812C64.2645 43.0703 64.9833 42.7695 65.7098 42.3789V39.5898H63.0145C62.3661 39.5898 61.8739 39.4922 61.538 39.2969C61.2098 39.1016 61.0458 38.7695 61.0458 38.3008C61.0458 37.918 61.1825 37.6016 61.4559 37.3516C61.7372 37.1016 62.1161 36.9766 62.5927 36.9766H66.5419C67.0262 36.9766 67.4364 37.0195 67.7723 37.1055C68.1083 37.1914 68.3778 37.3828 68.5809 37.6797C68.7919 37.9766 68.8973 38.4219 68.8973 39.0156ZM81.3319 44.0547L80.5116 41.8984H73.5272L72.7069 44.1016C72.3866 44.9609 72.1131 45.543 71.8866 45.8477C71.66 46.1445 71.2889 46.293 70.7733 46.293C70.3358 46.293 69.9491 46.1328 69.6131 45.8125C69.2772 45.4922 69.1092 45.1289 69.1092 44.7227C69.1092 44.4883 69.1483 44.2461 69.2264 43.9961C69.3045 43.7461 69.4334 43.3984 69.6131 42.9531L74.0077 31.7969C74.1327 31.4766 74.2811 31.0938 74.453 30.6484C74.6327 30.1953 74.8202 29.8203 75.0155 29.5234C75.2186 29.2266 75.4803 28.9883 75.8006 28.8086C76.1288 28.6211 76.5311 28.5273 77.0077 28.5273C77.492 28.5273 77.8944 28.6211 78.2147 28.8086C78.5428 28.9883 78.8045 29.2227 78.9998 29.5117C79.203 29.8008 79.3709 30.1133 79.5038 30.4492C79.6444 30.7773 79.8202 31.2188 80.0311 31.7734L84.5194 42.8594C84.8709 43.7031 85.0467 44.3164 85.0467 44.6992C85.0467 45.0977 84.8788 45.4648 84.5428 45.8008C84.2147 46.1289 83.8163 46.293 83.3475 46.293C83.0741 46.293 82.8397 46.2422 82.6444 46.1406C82.4491 46.0469 82.285 45.918 82.1522 45.7539C82.0194 45.582 81.8748 45.3242 81.7186 44.9805C81.5702 44.6289 81.4413 44.3203 81.3319 44.0547ZM74.4413 39.2852H79.5741L76.9842 32.1953L74.4413 39.2852ZM85.7625 38.8984V30.6367C85.7625 29.9336 85.9187 29.4062 86.2312 29.0547C86.5516 28.7031 86.9695 28.5273 87.4852 28.5273C88.0242 28.5273 88.45 28.7031 88.7625 29.0547C89.0828 29.4062 89.243 29.9336 89.243 30.6367V39.0859C89.243 40.0469 89.3484 40.8516 89.5594 41.5C89.7781 42.1406 90.1609 42.6406 90.7078 43C91.2547 43.3516 92.0203 43.5273 93.0047 43.5273C94.3641 43.5273 95.325 43.168 95.8875 42.4492C96.45 41.7227 96.7312 40.625 96.7312 39.1562V30.6367C96.7312 29.9258 96.8875 29.3984 97.2 29.0547C97.5125 28.7031 97.9305 28.5273 98.4539 28.5273C98.9773 28.5273 99.3992 28.7031 99.7195 29.0547C100.048 29.3984 100.212 29.9258 100.212 30.6367V38.8984C100.212 40.2422 100.079 41.3633 99.8133 42.2617C99.5555 43.1602 99.0633 43.9492 98.3367 44.6289C97.7117 45.207 96.9852 45.6289 96.157 45.8945C95.3289 46.1602 94.3602 46.293 93.2508 46.293C91.9305 46.293 90.7937 46.1523 89.8406 45.8711C88.8875 45.582 88.1102 45.1406 87.5086 44.5469C86.907 43.9453 86.4656 43.1797 86.1844 42.25C85.9031 41.3125 85.7625 40.1953 85.7625 38.8984ZM102.381 42.6602L106.224 37.0469L102.99 32.0547C102.685 31.5703 102.455 31.1562 102.299 30.8125C102.15 30.4609 102.076 30.125 102.076 29.8047C102.076 29.4766 102.22 29.1836 102.51 28.9258C102.806 28.6602 103.166 28.5273 103.588 28.5273C104.072 28.5273 104.447 28.6719 104.713 28.9609C104.986 29.2422 105.361 29.7695 105.838 30.543L108.416 34.7148L111.17 30.543C111.396 30.1914 111.588 29.8906 111.744 29.6406C111.908 29.3906 112.064 29.1836 112.213 29.0195C112.361 28.8555 112.525 28.7344 112.705 28.6562C112.892 28.5703 113.107 28.5273 113.349 28.5273C113.787 28.5273 114.142 28.6602 114.416 28.9258C114.697 29.1836 114.838 29.4922 114.838 29.8516C114.838 30.375 114.537 31.0859 113.935 31.9844L110.549 37.0469L114.193 42.6602C114.521 43.1523 114.76 43.5625 114.908 43.8906C115.056 44.2109 115.131 44.5156 115.131 44.8047C115.131 45.0781 115.064 45.3281 114.931 45.5547C114.799 45.7812 114.611 45.9609 114.369 46.0938C114.127 46.2266 113.853 46.293 113.549 46.293C113.22 46.293 112.943 46.2227 112.717 46.082C112.49 45.9492 112.306 45.7812 112.166 45.5781C112.025 45.375 111.763 44.9805 111.381 44.3945L108.357 39.6367L105.146 44.5352C104.896 44.9258 104.717 45.1992 104.607 45.3555C104.506 45.5117 104.381 45.6641 104.232 45.8125C104.084 45.9609 103.908 46.0781 103.705 46.1641C103.502 46.25 103.263 46.293 102.99 46.293C102.568 46.293 102.217 46.1641 101.935 45.9062C101.662 45.6484 101.525 45.2734 101.525 44.7812C101.525 44.2031 101.81 43.4961 102.381 42.6602Z" fill="white"/>
</svg>
